<svg id="line_icons" height="512" viewBox="0 0 74 74" width="512" xmlns="http://www.w3.org/2000/svg" data-name="line icons"><path d="m44.751 46.2h-15.5a1 1 0 0 1 -.959-.718 71.735 71.735 0 0 1 -2.537-19.562c0-14.444 3.783-21.768 11.245-21.768s11.245 7.324 11.245 21.768a71.735 71.735 0 0 1 -2.535 19.563 1 1 0 0 1 -.959.717zm-14.751-2h14a70.779 70.779 0 0 0 2.245-18.28c0-13.12-3.11-19.768-9.245-19.768s-9.245 6.648-9.245 19.768a70.779 70.779 0 0 0 2.245 18.28z"/><path d="m24.369 37.494a18.651 18.651 0 0 1 -6.463-1.12c-4.325-1.532-6.73-7.416-6.256-11.949.35-3.331 2.213-5.538 4.985-5.9 3.419-.45 5.169.91 6.035 2.127a5.6 5.6 0 0 1 .665 5.262c-.074.16-.182.377-.3.615-1.011 2.017-1.883 4.063-.521 5a7.036 7.036 0 0 0 4.446.766 1 1 0 0 1 .221 1.989 8.832 8.832 0 0 1 -5.81-1.113c-2.9-2-1.025-5.741-.124-7.539.109-.219.209-.416.288-.587a3.728 3.728 0 0 0 -.492-3.234c-.8-1.12-2.186-1.56-4.145-1.3-2.491.329-3.11 2.728-3.256 4.129-.388 3.7 1.548 8.657 4.947 9.86a17.511 17.511 0 0 0 8.66.78 1 1 0 0 1 .3 1.977 21.073 21.073 0 0 1 -3.18.237z"/><path d="m13.719 22.381a.989.989 0 0 1 -.535-.156l-1.642-1.042a1 1 0 0 1 1.072-1.689l1.642 1.043a1 1 0 0 1 -.537 1.844z"/><path d="m12.6 26.611a1.063 1.063 0 0 1 -.125-.008l-1.733-.216a1 1 0 0 1 .248-1.985l1.733.217a1 1 0 0 1 -.123 1.992z"/><path d="m18.173 20.456a1 1 0 0 1 -1-1v-1.581a1 1 0 0 1 2 0v1.581a1 1 0 0 1 -1 1z"/><path d="m21.8 22.163a1 1 0 0 1 -.522-1.854l1-.608a1 1 0 1 1 1.041 1.708l-1 .608a1 1 0 0 1 -.519.146z"/><path d="m11.886 31.463a1 1 0 0 1 -.307-1.952l1.529-.492a1 1 0 0 1 .614 1.9l-1.53.492a.991.991 0 0 1 -.306.052z"/><path d="m16.182 37.241a1 1 0 0 1 -.811-1.584l.983-1.364a1 1 0 1 1 1.623 1.169l-.983 1.364a1 1 0 0 1 -.812.415z"/><path d="m49.712 31.146a21.892 21.892 0 0 1 -2.712-.173 1 1 0 0 1 .248-1.985 17.009 17.009 0 0 0 8.122-.826c3.416-1.2 5.361-6.118 4.983-9.787-.146-1.409-.765-3.821-3.277-4.153-1.905-.267-3.273.139-4.071 1.215a3.842 3.842 0 0 0 -.566 3.268c.076.155.174.347.282.557.928 1.8 2.861 5.556-.071 7.575a8.668 8.668 0 0 1 -5.493 1.163 1 1 0 1 1 .155-1.994 6.906 6.906 0 0 0 4.2-.817c1.37-.943.469-2.994-.571-5.013-.117-.227-.223-.434-.311-.616a5.7 5.7 0 0 1 .766-5.317c.873-1.175 2.6-2.476 5.95-2 2.777.367 4.648 2.584 4.994 5.927.466 4.5-1.951 10.352-6.291 11.874a18.039 18.039 0 0 1 -6.337 1.102z"/><path d="m60.281 16.057a1 1 0 0 1 -.537-1.844l1.642-1.043a1 1 0 0 1 1.072 1.689l-1.642 1.041a.989.989 0 0 1 -.535.157z"/><path d="m61.4 20.287a1 1 0 0 1 -.123-1.992l1.733-.216a1 1 0 1 1 .248 1.984l-1.733.216a.884.884 0 0 1 -.125.008z"/><path d="m55.827 14.132a1 1 0 0 1 -1-1v-1.58a1 1 0 1 1 2 0v1.58a1 1 0 0 1 -1 1z"/><path d="m52.2 15.839a1 1 0 0 1 -.519-.146l-1-.608a1 1 0 1 1 1.041-1.708l1 .608a1 1 0 0 1 -.522 1.854z"/><path d="m62.114 25.14a.993.993 0 0 1 -.306-.049l-1.53-.492a1 1 0 0 1 .614-1.9l1.529.492a1 1 0 0 1 -.307 1.953z"/><path d="m57.818 30.917a1 1 0 0 1 -.812-.415l-.983-1.363a1 1 0 1 1 1.623-1.169l.983 1.363a1 1 0 0 1 -.811 1.584z"/><path d="m37 6.152a1 1 0 0 1 -1-1v-2.152a1 1 0 0 1 2 0v2.152a1 1 0 0 1 -1 1z"/><path d="m30.685 9.158a.989.989 0 0 1 -.558-.171l-1.778-1.2a1 1 0 1 1 1.117-1.658l1.778 1.2a1 1 0 0 1 -.559 1.829z"/><path d="m27.489 17.3a.991.991 0 0 1 -.327-.056l-1.853-.644a1 1 0 1 1 .654-1.89l1.853.643a1 1 0 0 1 -.327 1.945z"/><path d="m26.562 24.647h-1.356a1 1 0 1 1 0-2h1.356a1 1 0 1 1 0 2z"/><path d="m43.315 9.158a1 1 0 0 1 -.559-1.829l1.778-1.2a1 1 0 1 1 1.117 1.658l-1.778 1.2a.989.989 0 0 1 -.558.171z"/><path d="m46.511 17.3a1 1 0 0 1 -.327-1.945l1.853-.643a1 1 0 1 1 .654 1.89l-1.853.642a.991.991 0 0 1 -.327.056z"/><path d="m48.794 24.647h-1.356a1 1 0 0 1 0-2h1.356a1 1 0 0 1 0 2z"/><path d="m35.988 12.236a.994.994 0 0 1 -.631-.225l-.775-.631a1 1 0 1 1 1.264-1.551l.775.631a1 1 0 0 1 -.633 1.776z"/><path d="m40.516 15.947a1 1 0 0 1 -.471-1.883l1.55-.824a1 1 0 0 1 .939 1.766l-1.55.824a.987.987 0 0 1 -.468.117z"/><path d="m32.442 20.461a1 1 0 0 1 -.947-1.32l.538-1.591a1 1 0 1 1 1.895.641l-.538 1.59a1 1 0 0 1 -.948.68z"/><path d="m41.077 23.64a1.031 1.031 0 0 1 -.277-.04 1 1 0 0 1 -.684-1.238l.426-1.476a1 1 0 0 1 1.922.554l-.426 1.477a1 1 0 0 1 -.961.723z"/><path d="m31.62 28.2a1 1 0 0 1 -.62-1.785l1.292-1.022a1 1 0 1 1 1.24 1.568l-1.292 1.022a1 1 0 0 1 -.62.217z"/><path d="m39.382 29.228h-1.55a1 1 0 0 1 0-2h1.55a1 1 0 0 1 0 2z"/><path d="m42.2 35.137a1 1 0 0 1 -.958-1.289l.446-1.484a1 1 0 0 1 1.916.576l-.446 1.484a1 1 0 0 1 -.958.713z"/><path d="m32.265 39.572a1 1 0 0 1 -.958-1.288l.446-1.484a1 1 0 1 1 1.916.576l-.446 1.484a1 1 0 0 1 -.958.712z"/><path d="m39.511 40.843a1 1 0 0 1 -.2-.019l-1.52-.3a1 1 0 1 1 .387-1.962l1.52.3a1 1 0 0 1 -.192 1.981z"/><path d="m53.359 52.74h-32.718a2.245 2.245 0 0 1 -2.241-2.24v-4.058a2.245 2.245 0 0 1 2.241-2.242h32.718a2.245 2.245 0 0 1 2.241 2.242v4.058a2.245 2.245 0 0 1 -2.241 2.24zm-32.718-6.54a.242.242 0 0 0 -.242.241v4.059a.242.242 0 0 0 .242.241h32.718a.242.242 0 0 0 .241-.241v-4.058a.242.242 0 0 0 -.242-.241z"/><path d="m47.691 72h-21.382a3.276 3.276 0 0 1 -3.244-2.858l-2.181-17.277a1 1 0 0 1 .992-1.125h30.248a1 1 0 0 1 .992 1.125l-2.181 17.277a3.276 3.276 0 0 1 -3.244 2.858zm-24.681-19.26 2.04 16.151a1.271 1.271 0 0 0 1.259 1.109h21.382a1.271 1.271 0 0 0 1.259-1.109l2.04-16.151z"/></svg>